<svg xmlns="http://www.w3.org/2000/svg" shape-rendering="crispEdges" viewBox="0 -0.5 128 128" width="128" height="128"><metadata>Generated with pixel-perfect-svg https://github.com/kagof/pixel-perfect-svg</metadata><path stroke="#0f2a3f" d="M25,0h78M21,1h4M103,1h4M19,2h2M107,2h2M16,3h3M109,3h3M15,4h1M112,4h1M13,5h2M113,5h2M12,6h1M115,6h1M11,7h1M116,7h1M10,8h1M117,8h1M9,9h1M118,9h1M8,10h1M119,10h1M7,11h1M120,11h1M6,12h1M121,12h1M5,13h1M122,13h1M5,14h1M122,14h1M4,15h1M123,15h1M3,16h1M124,16h1M3,17h1M124,17h1M3,18h1M124,18h1M2,19h1M13,19h102M125,19h1M2,20h1M12,20h51M65,20h51M125,20h1M1,21h1M11,21h51M63,21h2M66,21h51M126,21h1M1,22h1M11,22h51M63,22h2M66,22h51M126,22h1M1,23h1M10,23h53M65,23h53M126,23h1M1,24h1M10,24h108M126,24h1M0,25h1M10,25h2M13,25h2M113,25h2M116,25h2M127,25h1M0,26h1M10,26h2M13,26h2M113,26h2M116,26h2M127,26h1M0,27h1M10,27h2M13,27h2M113,27h2M116,27h2M127,27h1M0,28h1M10,28h2M13,28h2M113,28h2M116,28h2M127,28h1M0,29h1M10,29h2M13,29h2M113,29h2M116,29h2M127,29h1M0,30h1M10,30h2M13,30h2M113,30h2M116,30h2M127,30h1M0,31h1M10,31h2M13,31h2M113,31h2M116,31h2M127,31h1M0,32h1M10,32h2M13,32h2M113,32h2M116,32h2M127,32h1M0,33h1M10,33h2M13,33h2M113,33h2M116,33h2M127,33h1M0,34h1M10,34h2M13,34h2M113,34h2M116,34h2M127,34h1M0,35h1M10,35h2M13,35h2M113,35h2M116,35h2M127,35h1M0,36h1M10,36h2M13,36h2M113,36h2M116,36h2M127,36h1M0,37h1M10,37h2M13,37h2M113,37h2M116,37h2M127,37h1M0,38h1M10,38h2M13,38h2M113,38h2M116,38h2M127,38h1M0,39h1M10,39h2M13,39h2M113,39h2M116,39h2M127,39h1M0,40h1M10,40h2M13,40h2M113,40h2M116,40h2M127,40h1M0,41h1M10,41h2M13,41h2M113,41h2M116,41h2M127,41h1M0,42h1M10,42h2M13,42h2M113,42h2M116,42h2M127,42h1M0,43h1M10,43h2M13,43h2M113,43h2M116,43h2M127,43h1M0,44h1M10,44h2M13,44h2M113,44h2M116,44h2M127,44h1M0,45h1M10,45h2M13,45h2M113,45h2M116,45h2M127,45h1M0,46h1M10,46h2M13,46h2M113,46h2M116,46h2M127,46h1M0,47h1M10,47h2M13,47h2M113,47h2M116,47h2M127,47h1M0,48h1M10,48h2M13,48h2M113,48h2M116,48h2M127,48h1M0,49h1M10,49h2M13,49h2M113,49h2M116,49h2M127,49h1M0,50h1M10,50h2M13,50h2M113,50h2M116,50h2M127,50h1M0,51h1M10,51h2M13,51h2M113,51h2M116,51h2M127,51h1M0,52h1M10,52h2M13,52h2M113,52h2M116,52h2M127,52h1M0,53h1M10,53h2M13,53h2M113,53h2M116,53h2M127,53h1M0,54h1M10,54h2M13,54h2M113,54h2M116,54h2M127,54h1M0,55h1M10,55h2M13,55h2M113,55h2M116,55h2M127,55h1M0,56h1M10,56h2M13,56h2M113,56h2M116,56h2M127,56h1M0,57h1M10,57h2M13,57h2M113,57h2M116,57h2M127,57h1M0,58h1M10,58h2M13,58h2M113,58h2M116,58h2M127,58h1M0,59h1M10,59h2M13,59h2M113,59h2M116,59h2M127,59h1M0,60h1M10,60h2M13,60h2M113,60h2M116,60h2M127,60h1M0,61h1M10,61h2M13,61h2M113,61h2M116,61h2M127,61h1M0,62h1M10,62h2M13,62h2M113,62h2M116,62h2M127,62h1M0,63h1M10,63h2M13,63h2M113,63h2M116,63h2M127,63h1M0,64h1M10,64h2M13,64h2M113,64h2M116,64h2M127,64h1M0,65h1M10,65h5M113,65h5M127,65h1M0,66h1M11,66h4M113,66h4M127,66h1M0,67h1M11,67h106M127,67h1M0,68h1M12,68h104M127,68h1M0,69h1M13,69h102M127,69h1M0,70h1M59,70h10M127,70h1M0,71h1M59,71h10M127,71h1M0,72h1M58,72h4M66,72h4M127,72h1M0,73h1M58,73h2M68,73h2M127,73h1M0,74h1M57,74h3M68,74h3M127,74h1M0,75h1M52,75h24M127,75h1M0,76h1M52,76h24M127,76h1M0,77h1M52,77h24M127,77h1M0,78h1M52,78h24M127,78h1M0,79h1M52,79h24M127,79h1M0,80h1M127,80h1M0,81h1M127,81h1M0,82h1M127,82h1M0,83h1M28,83h12M45,83h45M127,83h1M0,84h1M23,84h5M40,84h5M90,84h1M127,84h1M0,85h1M22,85h1M26,85h2M40,85h1M43,85h2M70,85h2M90,85h1M127,85h1M0,86h1M21,86h2M25,86h1M27,86h1M40,86h1M42,86h1M44,86h1M70,86h1M90,86h1M103,86h6M127,86h1M0,87h1M20,87h1M22,87h1M25,87h1M27,87h1M40,87h1M42,87h1M44,87h1M57,87h10M68,87h5M76,87h4M82,87h2M85,87h2M90,87h1M101,87h2M109,87h2M127,87h1M0,88h1M20,88h1M22,88h1M25,88h1M27,88h1M40,88h1M42,88h1M44,88h1M49,88h1M53,88h1M56,88h2M60,88h1M62,88h3M66,88h1M70,88h1M75,88h2M79,88h1M82,88h5M90,88h1M100,88h1M111,88h1M127,88h1M0,89h1M20,89h1M22,89h1M25,89h1M27,89h1M40,89h1M42,89h1M44,89h1M48,89h2M53,89h1M56,89h2M59,89h2M62,89h2M66,89h1M69,89h2M75,89h2M78,89h2M82,89h2M85,89h1M90,89h1M99,89h1M112,89h1M127,89h1M0,90h1M20,90h1M22,90h1M25,90h1M27,90h1M40,90h1M42,90h1M44,90h1M47,90h7M56,90h4M62,90h1M65,90h2M69,90h2M75,90h4M82,90h1M84,90h2M90,90h1M98,90h1M113,90h1M127,90h1M0,91h1M20,91h1M22,91h1M25,91h1M27,91h1M40,91h1M42,91h1M44,91h1M48,91h2M55,91h3M62,91h1M65,91h1M69,91h1M73,91h4M84,91h1M90,91h1M98,91h1M113,91h1M127,91h1M0,92h1M20,92h1M22,92h1M25,92h1M27,92h1M40,92h1M42,92h1M44,92h1M49,92h1M56,92h1M59,92h4M65,92h1M69,92h1M72,92h4M78,92h2M84,92h1M86,92h1M90,92h1M98,92h1M113,92h1M127,92h1M0,93h1M20,93h1M22,93h1M25,93h1M27,93h1M40,93h1M42,93h1M44,93h1M56,93h4M61,93h2M65,93h2M69,93h4M75,93h4M84,93h3M90,93h1M98,93h1M113,93h1M127,93h1M0,94h1M20,94h1M22,94h1M25,94h1M27,94h1M39,94h2M42,94h1M44,94h1M89,94h2M98,94h1M103,94h6M113,94h1M127,94h1M0,95h1M20,95h1M22,95h1M25,95h1M28,95h11M40,95h1M42,95h1M45,95h44M90,95h1M98,95h1M102,95h1M109,95h1M113,95h1M127,95h1M0,96h1M20,96h1M22,96h1M25,96h1M39,96h1M42,96h1M89,96h2M98,96h1M101,96h1M110,96h1M113,96h1M127,96h1M0,97h1M20,97h1M22,97h1M26,97h13M43,97h46M90,97h1M98,97h3M111,97h3M127,97h1M0,98h1M20,98h1M22,98h1M90,98h1M98,98h1M113,98h1M127,98h1M0,99h1M20,99h1M22,99h1M27,99h31M63,99h11M79,99h12M98,99h1M113,99h1M127,99h1M0,100h1M20,100h1M22,100h1M26,100h1M58,100h1M62,100h1M74,100h1M78,100h1M90,100h1M98,100h1M113,100h1M127,100h1M0,101h1M20,101h1M22,101h1M25,101h2M32,101h4M39,101h1M52,101h3M58,101h1M61,101h2M67,101h4M74,101h1M77,101h2M82,101h2M87,101h1M90,101h1M98,101h1M113,101h1M127,101h1M0,102h1M20,102h1M22,102h1M24,102h1M26,102h1M32,102h1M35,102h2M39,102h1M52,102h1M54,102h1M58,102h1M60,102h1M62,102h1M67,102h1M70,102h2M74,102h1M76,102h1M78,102h1M82,102h2M86,102h2M90,102h1M98,102h1M113,102h1M127,102h1M1,103h1M20,103h1M22,103h1M24,103h1M26,103h1M31,103h2M37,103h5M43,103h2M47,103h1M51,103h4M58,103h1M60,103h1M62,103h1M66,103h2M74,103h1M76,103h1M78,103h1M82,103h2M86,103h1M90,103h1M98,103h1M113,103h1M126,103h1M1,104h1M20,104h1M22,104h1M24,104h1M26,104h1M31,104h1M38,104h1M43,104h5M51,104h1M53,104h2M58,104h1M60,104h1M62,104h1M66,104h1M74,104h1M76,104h1M78,104h1M83,104h1M85,104h2M90,104h1M98,104h1M113,104h1M126,104h1M1,105h1M20,105h1M22,105h1M24,105h1M26,105h1M31,105h1M38,105h1M43,105h2M46,105h2M51,105h1M53,105h1M58,105h1M60,105h1M62,105h1M66,105h1M74,105h1M76,105h1M78,105h1M83,105h1M85,105h1M90,105h1M98,105h1M113,105h1M126,105h1M1,106h1M20,106h1M22,106h1M24,106h1M26,106h1M30,106h2M38,106h1M43,106h1M46,106h1M51,106h3M58,106h1M60,106h1M62,106h1M65,106h2M74,106h1M76,106h1M78,106h1M83,106h3M90,106h1M98,106h1M113,106h1M126,106h1M2,107h1M20,107h1M22,107h1M24,107h1M26,107h1M30,107h2M38,107h1M45,107h2M51,107h2M58,107h1M60,107h1M62,107h1M65,107h2M74,107h1M76,107h1M78,107h1M83,107h2M90,107h1M98,107h1M113,107h1M125,107h1M2,108h1M20,108h1M22,108h1M24,108h1M26,108h1M30,108h2M34,108h2M37,108h2M45,108h2M49,108h3M58,108h1M60,108h1M62,108h1M65,108h2M69,108h2M74,108h1M76,108h1M78,108h1M83,108h2M90,108h1M99,108h1M112,108h1M125,108h1M3,109h1M20,109h1M22,109h1M24,109h1M26,109h1M31,109h4M38,109h3M45,109h5M51,109h3M58,109h1M60,109h1M62,109h1M66,109h4M74,109h1M76,109h1M78,109h1M83,109h2M90,109h1M100,109h1M111,109h1M124,109h1M3,110h1M20,110h1M22,110h1M24,110h1M26,110h1M57,110h2M60,110h1M62,110h1M73,110h2M76,110h1M78,110h1M89,110h2M101,110h10M124,110h1M3,111h1M20,111h1M22,111h1M24,111h1M27,111h30M58,111h1M60,111h1M63,111h10M74,111h1M76,111h1M79,111h10M90,111h1M124,111h1M4,112h1M20,112h1M22,112h1M24,112h1M57,112h1M60,112h1M73,112h1M76,112h1M89,112h2M123,112h1M5,113h1M20,113h1M22,113h1M25,113h32M61,113h12M77,113h12M90,113h1M122,113h1M5,114h1M20,114h1M22,114h1M90,114h1M122,114h1M6,115h1M20,115h1M23,115h67M121,115h1M7,116h1M20,116h1M88,116h1M120,116h1M8,117h1M21,117h67M119,117h1M9,118h1M118,118h1M10,119h1M117,119h1M11,120h1M116,120h1M12,121h1M115,121h1M13,122h2M113,122h2M15,123h1M112,123h1M16,124h3M109,124h3M19,125h2M107,125h2M21,126h4M103,126h4M25,127h78"/><path stroke="#997577" d="M25,1h78M21,2h86M19,3h90M16,4h96M15,5h98M13,6h102M12,7h104M11,8h106M10,9h108M9,10h110M8,11h112M7,12h114M6,13h116M6,14h116M5,15h118M4,16h120M4,17h120M4,18h120M3,19h10M115,19h10M3,20h9M63,20h2M116,20h9M2,21h9M62,21h1M65,21h1M117,21h9M2,22h9M62,22h1M65,22h1M117,22h9M2,23h8M63,23h2M118,23h8M2,24h8M118,24h8M1,25h9M118,25h9M1,26h9M118,26h9M1,27h9M118,27h9M1,28h9M118,28h9M1,29h9M118,29h9M1,30h9M118,30h9M1,31h9M118,31h9M1,32h9M118,32h9M1,33h9M118,33h9M1,34h9M118,34h9M1,35h9M118,35h9M1,36h9M118,36h9M1,37h9M118,37h9M1,38h9M118,38h9M1,39h9M118,39h9M1,40h9M118,40h9M1,41h9M118,41h9M1,42h9M118,42h9M1,43h9M118,43h9M1,44h9M118,44h9M1,45h9M118,45h9M1,46h9M118,46h9M1,47h9M118,47h9M1,48h9M118,48h9M1,49h9M118,49h9M1,50h9M118,50h9M1,51h9M118,51h9M1,52h9M118,52h9M1,53h9M118,53h9M1,54h9M118,54h9M1,55h9M118,55h9M1,56h9M118,56h9M1,57h9M118,57h9M1,58h9M118,58h9M1,59h9M118,59h9M1,60h9M118,60h9M1,61h9M118,61h9M1,62h9M118,62h9M1,63h9M118,63h9M1,64h9M118,64h9M1,65h9M118,65h9M1,66h10M117,66h10M1,67h10M117,67h10M1,68h11M116,68h11M1,69h12M115,69h12M1,70h58M69,70h58M1,71h58M69,71h58M1,72h57M62,72h4M70,72h57M1,73h57M60,73h8M70,73h57M1,74h56M60,74h8M71,74h56M1,75h51M76,75h51M1,76h51M76,76h51M1,77h51M76,77h51M1,78h51M76,78h51M1,79h51M76,79h51M1,80h126M1,81h126M1,82h126M1,83h27M40,83h5M90,83h37M1,84h22M91,84h36M1,85h21M91,85h36M1,86h20M91,86h12M109,86h18M1,87h19M91,87h10M105,87h2M111,87h16M1,88h19M91,88h9M105,88h2M112,88h15M1,89h19M91,89h8M105,89h2M113,89h14M1,90h19M91,90h7M105,90h2M114,90h13M1,91h19M91,91h7M105,91h2M114,91h13M1,92h19M91,92h7M105,92h2M114,92h13M1,93h19M91,93h7M105,93h2M114,93h13M1,94h19M91,94h7M114,94h13M1,95h19M91,95h7M114,95h13M1,96h19M91,96h7M114,96h13M1,97h19M91,97h7M114,97h13M1,98h19M91,98h7M114,98h13M1,99h19M91,99h7M114,99h13M1,100h19M91,100h7M114,100h13M1,101h19M91,101h7M114,101h13M1,102h19M91,102h7M114,102h13M2,103h18M91,103h7M114,103h12M2,104h18M91,104h7M114,104h12M2,105h18M91,105h7M114,105h12M2,106h18M91,106h7M114,106h12M3,107h17M91,107h7M114,107h11M3,108h17M91,108h8M113,108h12M4,109h16M91,109h9M112,109h12M4,110h16M91,110h10M111,110h13M4,111h16M91,111h33M5,112h15M91,112h32M6,113h14M91,113h31M6,114h14M91,114h31M7,115h13M90,115h31M8,116h12M89,116h31M9,117h12M88,117h31M10,118h108M11,119h106M12,120h104M13,121h102M15,122h98M16,123h96M19,124h90M21,125h86M25,126h78"/><path stroke="#20394f" d="M12,25h1M115,25h1M12,26h1M115,26h1M12,27h1M115,27h1M12,28h1M115,28h1M12,29h1M115,29h1M12,30h1M115,30h1M12,31h1M115,31h1M12,32h1M115,32h1M12,33h1M115,33h1M12,34h1M115,34h1M12,35h1M115,35h1M12,36h1M115,36h1M12,37h1M115,37h1M12,38h1M115,38h1M12,39h1M115,39h1M12,40h1M115,40h1M12,41h1M115,41h1M12,42h1M115,42h1M12,43h1M115,43h1M12,44h1M115,44h1M12,45h1M115,45h1M12,46h1M115,46h1M12,47h1M115,47h1M12,48h1M115,48h1M12,49h1M115,49h1M12,50h1M115,50h1M12,51h1M115,51h1M12,52h1M115,52h1M12,53h1M115,53h1M12,54h1M115,54h1M12,55h1M115,55h1M12,56h1M115,56h1M12,57h1M115,57h1M12,58h1M115,58h1M12,59h1M115,59h1M12,60h1M115,60h1M12,61h1M115,61h1M12,62h1M115,62h1M12,63h1M115,63h1M12,64h1M115,64h1M21,87h1M21,88h1M21,89h1M21,90h1M21,91h1M21,92h1M21,93h1M21,94h1M21,95h1M103,95h6M21,96h1M102,96h8M21,97h1M101,97h10M21,98h1M99,98h14M21,99h1M99,99h14M21,100h1M99,100h14M21,101h1M99,101h14M21,102h1M99,102h14M21,103h1M99,103h14M21,104h1M99,104h14M21,105h1M99,105h14M21,106h1M99,106h14M21,107h1M99,107h14M21,108h1M100,108h12M21,109h1M101,109h10M21,110h1M21,111h1M21,112h1M21,113h1M21,114h1M21,115h2M21,116h67"/><path stroke="#4e495f" d="M15,25h98M15,26h98M15,27h98M15,28h98M15,29h40M60,29h8M73,29h40M15,30h36M60,30h8M77,30h36M15,31h33M59,31h10M80,31h33M15,32h30M59,32h10M83,32h30M15,33h29M84,33h29M15,34h29M84,34h29M15,35h28M85,35h28M15,36h28M85,36h28M15,37h27M86,37h27M15,38h27M86,38h27M15,39h26M87,39h26M15,40h26M87,40h26M15,41h25M54,41h5M69,41h5M88,41h25M15,42h25M53,42h7M68,42h7M88,42h25M15,43h24M52,43h9M67,43h9M89,43h24M15,44h24M51,44h11M66,44h11M89,44h24M15,45h23M51,45h11M66,45h11M90,45h23M15,46h23M51,46h11M66,46h11M90,46h23M15,47h22M51,47h11M66,47h11M91,47h22M15,48h21M51,48h11M66,48h11M92,48h21M15,49h21M52,49h9M67,49h9M92,49h21M15,50h21M53,50h7M68,50h7M92,50h21M15,51h21M54,51h5M69,51h5M92,51h21M15,52h21M92,52h21M15,53h21M92,53h21M15,54h21M92,54h21M15,55h22M53,55h22M91,55h22M15,56h23M51,56h26M90,56h23M15,57h23M50,57h28M90,57h23M15,58h24M49,58h30M89,58h24M15,59h25M48,59h32M88,59h25M15,60h26M47,60h34M87,60h26M15,61h98M15,62h98M15,63h98M15,64h98M15,65h98M15,66h98M23,85h3M41,85h2M23,86h2M41,86h1M23,87h2M41,87h1M104,87h1M107,87h1M23,88h2M41,88h1M104,88h1M107,88h1M23,89h2M41,89h1M104,89h1M107,89h1M23,90h2M41,90h1M104,90h1M107,90h1M23,91h2M41,91h1M104,91h1M107,91h1M23,92h2M41,92h1M104,92h1M107,92h1M23,93h2M41,93h1M104,93h1M107,93h1M23,94h2M41,94h1M23,95h2M41,95h1M23,96h2M40,96h2M23,97h3M39,97h4M89,97h1M23,98h67M23,99h4M58,99h5M74,99h5M23,100h3M59,100h3M75,100h3M23,101h2M59,101h2M75,101h2M23,102h1M59,102h1M75,102h1M23,103h1M59,103h1M75,103h1M23,104h1M59,104h1M75,104h1M23,105h1M59,105h1M75,105h1M23,106h1M59,106h1M75,106h1M23,107h1M59,107h1M75,107h1M23,108h1M59,108h1M75,108h1M23,109h1M59,109h1M75,109h1M23,110h1M59,110h1M75,110h1M23,111h1M59,111h1M75,111h1M23,112h1M58,112h2M74,112h2M23,113h2M57,113h4M73,113h4M89,113h1M23,114h67"/><path stroke="#f6d6bd" d="M55,29h5M68,29h5M51,30h9M68,30h9M48,31h11M69,31h11M45,32h14M69,32h14M44,33h40M44,34h40M43,35h42M43,36h42M42,37h44M42,38h44M41,39h46M41,40h46M40,41h14M59,41h10M74,41h14M40,42h13M60,42h8M75,42h13M39,43h13M61,43h6M76,43h13M39,44h12M62,44h4M77,44h12M38,45h13M62,45h4M77,45h13M38,46h13M62,46h4M77,46h13M37,47h14M62,47h4M77,47h14M36,48h15M62,48h4M77,48h15M36,49h16M61,49h6M76,49h16M36,50h17M60,50h8M75,50h17M36,51h18M59,51h10M74,51h18M36,52h56M36,53h56M36,54h56M37,55h16M75,55h16M38,56h13M77,56h13M38,57h12M78,57h12M39,58h10M79,58h10M40,59h8M80,59h8M41,60h6M81,60h6"/><path stroke="#c3a38a" d="M28,84h12M45,84h45M28,85h12M45,85h25M72,85h18M28,86h5M36,86h4M45,86h25M71,86h19M28,87h4M37,87h3M45,87h12M67,87h1M73,87h3M80,87h2M84,87h1M87,87h3M103,87h1M108,87h1M28,88h3M38,88h2M45,88h4M50,88h3M54,88h2M58,88h2M61,88h1M65,88h1M67,88h3M71,88h4M77,88h2M80,88h2M87,88h3M101,88h3M108,88h3M28,89h3M38,89h2M45,89h3M50,89h3M54,89h2M58,89h1M61,89h1M64,89h2M67,89h2M71,89h4M77,89h1M80,89h2M84,89h1M86,89h4M100,89h4M108,89h4M28,90h3M38,90h2M45,90h2M54,90h2M60,90h2M63,90h2M67,90h2M71,90h4M79,90h3M83,90h1M86,90h4M99,90h5M108,90h5M28,91h4M37,91h3M45,91h3M50,91h5M58,91h4M63,91h2M66,91h3M70,91h3M77,91h7M85,91h5M99,91h5M108,91h5M28,92h5M36,92h4M45,92h4M50,92h6M57,92h2M63,92h2M66,92h3M70,92h2M76,92h2M80,92h4M85,92h1M87,92h3M99,92h5M108,92h5M28,93h12M45,93h11M60,93h1M63,93h2M67,93h2M73,93h2M79,93h5M87,93h3M99,93h5M108,93h5M28,94h11M45,94h44M99,94h4M109,94h4M99,95h3M110,95h3M99,96h2M111,96h2M27,100h31M63,100h11M79,100h11M27,101h5M36,101h3M40,101h12M55,101h3M63,101h4M71,101h3M79,101h3M84,101h3M88,101h2M27,102h5M33,102h2M37,102h2M40,102h12M53,102h1M55,102h3M63,102h4M68,102h2M72,102h2M79,102h3M84,102h2M88,102h2M27,103h4M33,103h4M42,103h1M45,103h2M48,103h3M55,103h3M63,103h3M68,103h6M79,103h3M84,103h2M87,103h3M27,104h4M32,104h6M39,104h4M48,104h3M52,104h1M55,104h3M63,104h3M67,104h7M79,104h4M84,104h1M87,104h3M27,105h4M32,105h6M39,105h4M45,105h1M48,105h3M52,105h1M54,105h4M63,105h3M67,105h7M79,105h4M84,105h1M86,105h4M27,106h3M32,106h6M39,106h4M44,106h2M47,106h4M54,106h4M63,106h2M67,106h7M79,106h4M86,106h4M27,107h3M32,107h6M39,107h6M47,107h4M53,107h5M63,107h2M67,107h7M79,107h4M85,107h5M27,108h3M32,108h2M36,108h1M39,108h6M47,108h2M52,108h6M63,108h2M67,108h2M71,108h3M79,108h4M85,108h5M27,109h4M35,109h3M41,109h4M50,109h1M54,109h4M63,109h3M70,109h4M79,109h4M85,109h5M27,110h30M63,110h10M79,110h10"/><path stroke="#816271" d="M26,86h1M33,86h3M43,86h1M26,87h1M32,87h5M43,87h1M26,88h1M31,88h7M43,88h1M26,89h1M31,89h7M43,89h1M26,90h1M31,90h7M43,90h1M26,91h1M32,91h5M43,91h1M26,92h1M33,92h3M43,92h1M26,93h1M43,93h1M26,94h1M43,94h1M26,95h2M39,95h1M43,95h2M89,95h1M26,96h13M43,96h46M25,102h1M61,102h1M77,102h1M25,103h1M61,103h1M77,103h1M25,104h1M61,104h1M77,104h1M25,105h1M61,105h1M77,105h1M25,106h1M61,106h1M77,106h1M25,107h1M61,107h1M77,107h1M25,108h1M61,108h1M77,108h1M25,109h1M61,109h1M77,109h1M25,110h1M61,110h1M77,110h1M25,111h2M57,111h1M61,111h2M73,111h1M77,111h2M89,111h1M25,112h32M61,112h12M77,112h12"/></svg>
